<svg version="1.2" xmlns="http://www.w3.org/2000/svg" viewBox="0 0 1520 415" width="1520" height="415">
	<title>skilvul-independence-day-white-svg</title>
	<style>
		.s0 { fill: #0f1029 } 
		.s1 { fill: #ffffff;stroke: #ffffff;stroke-width: 2 } 
		.s2 { fill: #ffffff } 
		.s3 { fill: #75400b } 
		.s4 { fill: #ff3034 } 
		.s5 { fill: #a11923 } 
		.s6 { fill: #d11718 } 
		.s7 { fill: #d1404d } 
		.s8 { fill: #e54343 } 
	</style>
	<g id="Layer">
		<path id="Layer" class="s0" d="m1422.7 362.9h-53.8v-234.8h53.8zm-87.6-73c0 23.1-7.2 41.6-21.6 55.7-14.4 14.1-32.6 21-54.8 21-22.5 0-40.7-6.9-55.1-21-14.4-14.1-21.6-32.5-21.6-55.7v-83.6h53.8v88c0 6.9 1.9 12.2 6.3 16.6 4.4 4.4 9.7 6.3 16.6 6.3 6.3 0 11.6-1.9 16-6.3 4.4-4.4 6.6-9.7 6.6-16.6v-88h53.8zm-170.2-83.6l-80.1 160.3h-17.2l-80.1-160.3h57l31.9 70.4 31.6-70.4zm-195.6 156.6h-53.8v-234.8h53.8zm-88.9-0.1h-53.9v-156.5h53.9zm-3.8-234.4c6.3 6.2 9.7 13.7 9.7 22.5 0 8.7-3.5 16.2-9.7 22.5-6.6 6.3-14.4 9.1-23.5 9.1-9.4 0-17.2-2.8-23.5-9.1-6.3-5.9-9.4-13.4-9.4-22.5 0-8.7 3.1-16.2 9.4-22.5 6.3-6.3 14.1-9.4 23.5-9.4 9.1 0 16.9 3.1 23.5 9.4zm-126.7 234.5l-55.7-82.6v82.6h-53.8v-234.8h53.8v141.5l48.8-63.2h62.3l-53.8 69.8 57.6 86.7zm-142.8-168.8l-36 27.5c-5-7.5-10.3-12.8-15.3-16.6-5.3-3.4-11.6-5.3-18.8-5.3-12.6 0-18.5 4.4-18.5 13.2 0 3.8 1.3 6.9 3.8 9.4q3.8 3.8 14.1 7.5l23.8 10c17.9 7.5 31 16.3 39.8 26 8.7 9.7 13.1 21.9 13.1 36.3 0 20.1-7.2 35.7-21.6 47.3-14.4 11.6-32.3 17.2-54.2 17.2-18.8 0-35.1-4-49.5-12.5-14.4-8.1-25.4-19.4-32.9-33.8l36.3-27.6c13.1 17.8 28.5 26.6 46 26.6 14.1 0 21.3-5 21.3-15 0-4.4-1.6-7.8-4.4-10.3-3.1-2.2-8.5-5.1-16.6-8.8l-21.3-9.4c-35.1-15-52.3-36-52.3-62.3 0-18.1 6.5-32.8 20-44.1 13.5-11.3 31-16.9 52.3-16.9 33.2 0 56.7 14.1 70.9 41.6z"/>
		<g id="Layer">
			<g id="Layer">
				<g id="Layer">
					<g id="Layer">
						<path id="Layer" class="s1" d="m220.6 275.7c-4 0-7.5-3-8-7l-18.5-141.9c-4.2 1.2-6.7 2.4-7.6 3.2-4.8 4.1-8.6 9.8-11.9 15.5l-1.9 3.3c-3.2 5.5-6.5 11.2-10.9 16.5-8 9.6-19 16.8-31 20.3q-8.3 2.4-17.4 2.4c-7 0-14.1-1.1-20.4-3.2-3.3-1.1-5.5-4.1-5.6-7.6 0-2.3-0.1-4.6-0.2-6.8 0-1.1-0.1-2.3-0.2-3.4-0.1-1.5-0.2-3.1-0.4-5l-0.1-0.6c-0.1-0.9-0.1-1.7-0.2-2.5-0.2-1.9-0.5-3.9-0.7-5.5 0 0-0.3-2-0.3-2.5-0.5-2.9-0.9-5.5-1.5-7.9-2.8-12.9-7.4-24.5-13.7-34.5-1.5-2.4-1.6-5.4-0.4-7.9 1.3-2.5 3.8-4.2 6.6-4.4 15.1-1.2 29.8-8.9 39.5-20.5 2.1-2.5 4-5.2 6-8.1 2.1-3 4.2-6 6.7-9 9.4-11.4 22.6-20.1 37.2-24.4 5.2-1.5 10.6-2.5 16-2.9l-0.1-0.4c-0.4-3.4 1.3-6.8 4.5-8.3 0.8-0.4 4.9-2.3 9.9-2.3 0.5 0 1.1 0 1.6 0.1 3.8 0.3 6.8 3.1 7.3 6.9l34.8 238.9c0.3 2.3-0.3 4.6-1.8 6.3-1.5 1.8-3.6 2.8-5.9 2.9-11.3 0.3-11.3 0.3-11.4 0.3z"/>
					</g>
					<g id="Layer">
						<path id="Layer" fill-rule="evenodd" class="s1" d="m197.9 17.4c5.1 0.4 9.3 4.3 10 9.4l35 239c0.4 3.1-0.5 6.3-2.5 8.7-2 2.4-5 3.8-8.1 3.9-11.4 0.4-11.4 0.4-11.5 0.4-5.6 0-10.3-4.1-11-9.6l-18-138.3c-1.9 0.7-2.9 1.2-3.2 1.5-4.4 3.8-8 9.3-11.2 14.7l-2 3.3c-3.3 5.6-6.7 11.5-11.2 16.9-8.4 10.1-19.9 17.7-32.5 21.3-5.7 1.7-11.8 2.5-18.2 2.5-7.3 0-14.7-1.1-21.4-3.3-4.5-1.5-7.6-5.7-7.6-10.5 0-2.2-0.1-4.5-0.2-6.7-0.1-1.1-0.1-2.2-0.2-3.3-0.1-1.4-0.2-3-0.4-4.9l-0.1-0.7c-0.1-0.8-0.1-1.6-0.2-2.4-0.2-1.9-0.5-3.8-0.7-5.4 0-0.1 0-0.1 0-0.1-0.1-0.9-0.3-2.1-0.3-2.4-0.4-2.8-0.9-5.3-1.4-7.7-2.7-12.6-7.2-23.8-13.3-33.6-2-3.2-2.2-7.4-0.5-10.8 1.7-3.5 5.2-5.8 9-6.1 14.2-1.2 28.2-8.5 37.4-19.5 2-2.4 3.8-5.1 5.8-7.9 2.1-3 4.3-6.1 6.8-9.1 9.8-11.9 23.5-20.9 38.7-25.4 4.5-1.4 9.2-2.3 13.8-2.8 0.4-3.6 2.7-6.9 6.1-8.6 0.8-0.5 5.5-2.6 11.2-2.6 0.7 0 1.3 0 1.9 0.1zm-10.6 8c-1.9 0.9-3.1 3-2.8 5.2l0.5 3.6c-6.2 0.1-12.4 1.1-18.5 2.9-14.1 4.1-26.8 12.4-35.8 23.4-2.4 2.9-4.5 5.9-6.5 8.8-2.1 2.9-4 5.7-6.2 8.3-10.2 12.2-25.7 20.3-41.6 21.6-1.7 0.2-3.3 1.2-4.1 2.8-0.8 1.6-0.7 3.5 0.2 5 6.5 10.4 11.2 22.3 14.1 35.5q0.8 3.8 1.5 8.1c0.1 0.5 0.4 2.6 0.4 2.6 0.3 1.9 0.5 3.7 0.7 5.6 0.1 0.8 0.1 1.7 0.2 2.5l0.1 0.6c0.2 1.7 0.3 3.4 0.4 5.1 0.1 1.1 0.2 2.3 0.2 3.4 0.1 2.3 0.2 4.6 0.2 6.9 0 2.2 1.4 4.1 3.5 4.8 6.1 1.9 12.8 3 19.5 3 5.8 0 11.4-0.8 16.6-2.3 11.5-3.3 22-10.1 29.6-19.3 4.2-5.1 7.5-10.7 10.6-16.1l2-3.3c3.4-5.9 7.4-12 12.5-16.3 2.2-1.8 7.1-3.5 12.1-4.7l18.9 145.2c0.3 2.5 2.5 4.4 5 4.4 0.1 0 11.4-0.3 11.4-0.3 1.4 0 2.8-0.7 3.7-1.8 0.9-1.1 1.3-2.6 1.1-4l-34.8-238.9c-0.3-2.3-2.2-4.1-4.6-4.3-0.5-0.1-0.9-0.1-1.4-0.1-4.4 0-8.2 1.8-8.7 2.1z"/>
					</g>
				</g>
				<g id="Layer">
					<path id="Layer" fill-rule="evenodd" class="s1" d="m197.8 18.2c4.7 0.4 8.5 4 9.2 8.7l34.9 239.1c0.4 2.9-0.4 5.8-2.3 8-1.9 2.2-4.6 3.5-7.5 3.6l-11.2 0.3q-0.2 0-0.3 0c-5.1 0-9.4-3.8-10.1-8.9l-18-139.5c-2.2 0.8-3.8 1.5-4.5 2.1-4.5 3.9-8.2 9.5-11.4 15-0.6 1.1-1.3 2.2-1.9 3.3-3.3 5.6-6.6 11.4-11.1 16.8-8.3 10-19.7 17.4-32.1 21-5.7 1.7-11.7 2.5-18 2.5-7.2 0-14.5-1.1-21.1-3.3-4.2-1.3-7-5.2-7-9.6 0-2.3-0.1-4.5-0.2-6.8-0.1-1.1-0.1-2.2-0.2-3.3-0.1-1.7-0.3-3.3-0.4-5l-0.1-0.7c-0.1-0.8-0.1-1.6-0.2-2.4-0.2-1.8-0.4-3.6-0.7-5.4l-0.1-1.1c-0.1-0.5-0.1-0.9-0.2-1.4-0.5-2.9-1-5.4-1.5-7.8-2.7-12.6-7.2-24-13.4-33.8-1.9-3.1-2.1-6.8-0.5-10 1.6-3.2 4.8-5.3 8.3-5.6 14.5-1.1 28.7-8.5 38-19.6 2-2.5 3.9-5.1 5.9-8 2.1-3 4.2-6.1 6.7-9.1 9.7-11.8 23.3-20.7 38.3-25.1 4.8-1.4 9.6-2.3 14.4-2.8 0.2-3.7 2.3-7.1 5.7-8.7 0.8-0.4 5.3-2.5 10.8-2.5q0.9 0 1.8 0zm-8.3 11.7l11.1 85.1c-7.6-14.6-5.4-38.9-5.4-38.9-6.1-8.4-5.4-36.8-5.4-36.8-1-0.1-2-0.1-3-0.1-6.3 0-12.7 0.9-18.8 2.7-12.9 3.8-24.7 11.4-33.3 21.8-4.5 5.5-8.2 11.6-12.7 17.1-11.1 13.4-27.8 22-45.1 23.4 7.1 11.5 11.8 24.1 14.7 37.1 0.6 2.7 1.2 5.5 1.6 8.3 0.2 0.9 0.3 1.8 0.4 2.7 0.2 1.9 0.5 3.9 0.7 5.8q0.2 1.6 0.3 3.3c0.2 1.8 0.3 3.5 0.4 5.3 0.1 1.1 0.2 2.3 0.2 3.5 0.1 2.4 0.2 4.7 0.2 7.1 5.6 1.9 11.8 2.8 17.9 2.8 5.2 0 10.4-0.7 15.2-2.1 10.6-3 20.1-9.3 27.1-17.7 4.8-5.8 8.3-12.4 12.1-18.8 3.8-6.5 7.9-12.8 13.6-17.6 4.9-4.2 16.5-6.4 19.7-6.9l19.5 150.6 11.2-0.3-34.8-238.9q-0.4 0-0.9 0c-3.3 0-6.4 1.4-6.5 1.5z"/>
					<path id="Layer" fill-rule="evenodd" class="s1" d="m220.6 280.8c-6.6 0-12.2-4.9-13-11.5l-17.7-135.5c-0.1 0-0.1 0.1-0.2 0.1-4.2 3.6-7.7 8.9-10.8 14.2-0.6 1.1-1.3 2.2-1.9 3.3-3.3 5.7-6.7 11.6-11.4 17.2-8.6 10.4-20.5 18.2-33.5 21.9-5.9 1.7-12.3 2.6-18.8 2.6-7.5 0-15.1-1.2-22-3.4-5.4-1.8-9-6.8-9.1-12.4 0-2.2-0.1-4.4-0.2-6.7 0-1.1-0.1-2.2-0.2-3.3-0.1-1.4-0.2-3-0.4-4.9l-0.1-0.8c-0.1-0.7-0.1-1.4-0.2-2.2-0.2-1.8-0.4-3.6-0.7-5.3l-0.2-1.2c-0.1-0.4-0.1-0.8-0.2-1.2-0.4-2.8-0.9-5.3-1.4-7.6-2.7-12.3-7.1-23.4-13-32.9-2.4-3.9-2.6-8.8-0.6-12.9 2-4.1 6.1-6.8 10.7-7.2 13.7-1.1 27.2-8.1 36-18.7 1.9-2.3 3.8-5 5.8-7.8 2.1-3 4.3-6.2 6.9-9.3 10-12.2 24.2-21.5 39.7-26 4.1-1.2 8.4-2.1 12.6-2.7 0.9-3.7 3.5-6.9 7-8.6 1-0.5 6-2.8 12.1-2.8 0.7 0 1.4 0 2 0.1 6.1 0.5 11 5.1 11.9 11.2l34.8 238.9c0.5 3.7-0.5 7.5-2.9 10.3-2.4 2.9-5.9 4.6-9.7 4.7l-11.2 0.3c0.2 0.1 0 0.1-0.1 0.1zm-28.2-154.2c0.6 0 1.1 0.2 1.6 0.5 0.8 0.5 1.3 1.3 1.4 2.1l18.2 139.4c0.5 3.6 3.5 6.2 7.1 6.2h0.2l11.2-0.3c2-0.1 4-1 5.3-2.6 1.3-1.6 1.9-3.6 1.6-5.6l-34.9-238.9c-0.5-3.3-3.2-5.8-6.5-6.1-0.5 0-1-0.1-1.5-0.1-4.9 0-9.1 2-9.5 2.2-2.4 1.1-3.9 3.5-4 6.1-0.1 1.5-1.2 2.7-2.7 2.8-4.6 0.5-9.3 1.4-13.8 2.7-14.4 4.2-27.5 12.8-36.8 24.1-2.4 2.9-4.5 5.9-6.6 8.9-2 2.9-4 5.7-6.1 8.2-9.9 11.8-24.9 19.6-40.2 20.8-2.5 0.2-4.7 1.7-5.8 3.9-1.1 2.2-1 4.9 0.3 7 6.3 10.1 11 21.8 13.8 34.8 0.5 2.4 1 5 1.5 7.9 0.1 0.4 0.1 0.9 0.2 1.3l0.2 1.2c0.2 1.7 0.5 3.6 0.7 5.5 0.1 0.8 0.1 1.5 0.2 2.3l0.1 0.8c0.2 1.9 0.3 3.6 0.4 5.1 0.1 1.1 0.1 2.3 0.2 3.4 0.1 2.3 0.2 4.6 0.2 6.9 0 3.1 2 5.8 4.9 6.8 6.3 2.1 13.3 3.1 20.2 3.1 6 0 11.8-0.8 17.2-2.3 11.8-3.4 22.7-10.5 30.6-20 4.3-5.2 7.6-10.9 10.8-16.4 0.6-1.1 1.3-2.2 2-3.3 3.4-5.7 7.2-11.6 12.1-15.7 0.4-0.3 1.5-1.3 5.5-2.6 0-0.1 0.4-0.1 0.7-0.1zm28.2 144.1c-1.5 0-2.8-1.1-3-2.6l-19.2-147.5c-5.8 1.2-12.3 3.2-15.2 5.6-5.4 4.5-9.4 10.8-13 16.8-0.7 1.1-1.3 2.2-2 3.4-3.1 5.3-6.3 10.9-10.4 15.8-7.3 8.8-17.5 15.5-28.5 18.7-5 1.4-10.4 2.2-16 2.2-6.5 0-13-1-18.9-2.9-1.2-0.4-2.1-1.5-2.1-2.8 0-2.3-0.1-4.6-0.2-7 0-1.2-0.1-2.3-0.2-3.5-0.1-1.5-0.2-3.2-0.4-5.2l-0.1-0.7c-0.1-0.8-0.1-1.7-0.2-2.5-0.2-2-0.5-4-0.7-5.7 0-0.3-0.1-0.7-0.1-1.1-0.1-0.5-0.1-1-0.2-1.6-0.5-3-1-5.6-1.5-8.2-2.9-13.4-7.8-25.6-14.4-36.1-0.6-0.9-0.6-2-0.1-2.9 0.5-0.9 1.4-1.6 2.4-1.6 16.4-1.3 32.5-9.7 43-22.3 2.2-2.7 4.3-5.6 6.3-8.5 2-2.9 4.1-5.8 6.4-8.6 8.8-10.7 21.1-18.7 34.8-22.7 6.7-2 13.5-2.9 20.3-2.9l-0.8-5.9c-0.2-1.3 0.5-2.5 1.7-3.1 0.4-0.2 4.5-2.1 8.9-1.7 1.4 0.1 2.5 1.2 2.7 2.5l34.8 238.9c0.1 0.8-0.1 1.7-0.7 2.3-0.5 0.7-1.3 1-2.2 1.1zm-17-155.1c0.2 0.3 0.3 0.7 0.3 1l19.3 147.9 5.2-0.2-34-233q-0.7 0.2-1.5 0.3l10.8 82.7c0 0.6 0 1-0.1 1.3zm-105.2 59.3c4.7 1.3 9.9 2 15 2 5 0 9.9-0.7 14.4-2 9.9-2.9 19-8.8 25.6-16.7 3.8-4.5 6.8-9.8 9.8-15 0.7-1.1 1.3-2.3 2-3.4 3.8-6.5 8.2-13.2 14.3-18.3 4.3-3.6 12.5-5.8 17.9-6.9-6.3-13.6-5.4-33.1-5.1-37.9-4.9-8.2-5.4-27-5.4-34.6-6 0-12.1 0.9-18 2.6-12.6 3.7-23.9 11.1-31.9 20.9-2.2 2.6-4.2 5.5-6.1 8.3-2.1 2.9-4.2 6-6.6 8.8-10.7 12.9-26 21.4-42.4 23.9 5.7 10.1 10 21.6 12.7 34 0.6 2.6 1.1 5.4 1.6 8.5 0.1 0.6 0.2 1.1 0.2 1.7 0 0.3 0.1 0.7 0.1 1 0.2 1.7 0.5 3.8 0.7 5.9 0.1 0.9 0.2 1.8 0.2 2.7l0.1 0.6c0.2 2.1 0.3 3.8 0.4 5.3 0.1 1.2 0.1 2.4 0.2 3.6 0.2 1.7 0.2 3.3 0.3 5z"/>
				</g>
			</g>
			<g id="Layer">
				<g id="Layer">
					<g id="Layer">
						<path id="Layer" class="s0" d="m221.6 268.2c-0.7 0-1.4-0.6-1.5-1.3l-30.9-237.9c-0.1-0.6 0.3-1.3 0.8-1.5 0.1-0.1 3.4-1.6 7.1-1.6 0.4 0 0.7 0 1.1 0 0.7 0.1 1.3 0.6 1.4 1.3l34.8 238.9c0.1 0.4-0.1 0.8-0.3 1.2-0.3 0.3-0.7 0.5-1.1 0.5-0.1 0-11.4 0.4-11.4 0.4z"/>
					</g>
					<g id="Layer">
						<path id="Layer" fill-rule="evenodd" class="s0" d="m198.2 24.5c1.4 0.1 2.5 1.1 2.7 2.5l34.9 238.9c0.1 0.9-0.2 1.7-0.7 2.4-0.5 0.7-1.3 1.1-2.2 1.1l-11.2 0.3h-0.1c-1.5 0-2.8-1.1-3-2.6l-31-237.8c-0.1-1.3 0.5-2.5 1.7-3.1 0.4-0.2 3.7-1.8 7.7-1.8 0.4 0 0.8 0 1.2 0.1zm-7.7 4.3l31 237.8 11.2-0.3-34.8-238.9q-0.4 0-0.9 0c-3.4 0-6.4 1.4-6.5 1.4z"/>
					</g>
				</g>
			</g>
			<g id="Layer">
				<g id="Layer">
					<g id="Layer">
						<g id="Layer">
							<path id="Layer" fill-rule="evenodd" class="s2" d="m417.8 212.7c-1.3 0-2.7-0.4-3.9-1.1l-130.8-78.2c-2.2-1.3-3.6-3.6-3.7-6.2-0.1-2.5 1.1-5 3.2-6.4l66.3-46.8c3.5-2.5 7.7-3.8 12.1-3.8 3.7 0 7.3 1 10.4 2.8l51.7 24.4c2.7 1.3 4.4 4 4.3 7l-2.2 101.1c-0.1 2.7-1.5 5.1-3.9 6.4-1 0.5-2.3 0.8-3.5 0.8z"/>
						</g>
					</g>
					<g id="Layer">
						<g id="Layer">
							<g id="Layer">
								<path id="Layer" fill-rule="evenodd" class="s2" d="m375.2 66.1l16.8 7.9 34.7 16.3c5.3 2.5 8.7 8 8.6 13.9l-2.2 101.2c-0.2 5.3-3.1 10.2-7.8 12.8-2.3 1.3-4.8 1.9-7.3 1.9-2.7 0-5.3-0.7-7.7-2.1l-130.8-78.2c-4.4-2.6-7.1-7.2-7.3-12.3-0.2-5.1 2.1-10 6.3-12.9l66.2-46.8c4.8-3.4 10.5-5.2 16.4-5.2 4.8 0 9.6 1.2 14.1 3.5zm-21.9 14c-22.1 15.7-44.2 31.3-66.3 46.9 43.6 26 87.2 52.1 130.8 78.1 0.7-33.7 1.5-67.4 2.2-101.1-17.3-8.2-34.7-16.3-52-24.5-2.1-1.3-4.5-1.9-6.9-1.9-2.8 0-5.5 0.9-7.8 2.5z"/>
							</g>
						</g>
					</g>
				</g>
				<g id="Layer">
					<g id="Layer">
						<path id="Layer" class="s3" d="m299.4 124.4l60.9-45.3 55.3 28.8v89.8z"/>
					</g>
				</g>
				<g id="Layer">
					<g id="Layer">
						<path id="Layer" fill-rule="evenodd" class="s0" d="m372.8 77.3l20.5 9.6 25.1 11.8c4.1 1.9 6.6 6 6.5 10.5l-0.9 40.7-1.1 48.8c-0.1 4.1-2.3 7.8-5.8 9.7-1.7 0.9-3.6 1.4-5.5 1.4-2 0-4-0.5-5.8-1.6l-115.8-69.3c-3.3-2-5.4-5.5-5.5-9.3-0.1-3.9 1.7-7.5 4.8-9.7l58.7-41.5c3.9-2.7 8.6-4.2 13.4-4.2 3.9 0 7.9 1 11.4 3.1zm-18.3 10.4c-19.6 13.8-39.1 27.7-58.7 41.5 38.6 23 77.2 46.1 115.8 69.2 0.6-29.8 1.3-59.7 1.9-89.5-15.3-7.2-30.7-14.5-46-21.7-1.9-1.1-4-1.7-6.1-1.7-2.5 0-4.9 0.7-6.9 2.2z"/>
					</g>
				</g>
				<g id="Layer">
					<g id="Layer">
						<path id="Layer" fill-rule="evenodd" class="s2" d="m295.8 405c-2.5 0-4.9-0.6-7.3-1.7-0.9-0.4-1.8-1-2.8-1.5l-0.4-0.2-116.7-68.8c-6.3-3.7-9.7-9.6-9.7-16.9q0-59.5 0-119.1 0-5.9 2.7-10.5c1.7-2.9 4.1-5.2 7.2-7 2.2-1.3 16.1-9.6 38.1-22.6l77.1-45.8 5.1 4.1c2 1.6 5.6 4.5 10.1 7.9 48 37.1 76.7 57.9 109.8 55.9 4.2-0.3 8.5-0.9 12.8-1.9l11.7-2.8-0.3 102.3c0 20 0 34.4 0.1 37.9 0.1 4.2-0.8 8.1-2.8 11.4-1.8 3.1-4.5 5.8-8.1 7.9-37.3 21.9-74.5 43.9-111.8 65.9l-3.9 2.3c-3.7 2.1-7.3 3.2-10.9 3.2zm-118-88.7c0.1 0 0.2 0.1 0.4 0.2l117.2 69.1c0.2 0.1 0.4 0.3 0.6 0.4 0.2-0.1 0.6-0.3 1.1-0.6l3.9-2.3c37.2-22 74.5-44 111.8-65.9 0.8-0.5 1.2-0.8 1.3-1 0.3-0.5 0.3-1.2 0.2-1.6-0.1-3.7-0.1-17.5-0.1-38.3l0.2-79.2c-1.5 0.2-2.9 0.3-4.4 0.4-41.8 2.6-77.4-25-122.5-59.8-1.9-1.5-3.7-2.9-5.2-4.1l-65.9 39.2c-22.1 13.1-36.1 21.5-38.2 22.7-0.2 0.1-0.4 0.2-0.5 0.4 0 0-0.1 0.3-0.1 0.9 0 39.7 0 79.4 0 119.2 0.2 0.1 0.2 0.2 0.2 0.3z"/>
					</g>
				</g>
				<g id="Layer">
					<g id="Layer">
						<path id="Layer" fill-rule="evenodd" class="s0" d="m423.8 238.4c0 25.3-0.1 50.7 0 76 0 5.1-1.9 8.4-6.2 11-38.6 22.6-77.1 45.4-115.6 68.2-3.1 1.8-6.1 2.8-9.5 1.2-0.8-0.4-1.6-0.8-2.3-1.3-38.9-22.9-77.8-45.9-116.7-68.8-3.4-2-5-4.8-5-8.8q0-59.6 0-119.1c0-4.3 1.7-7.2 5.3-9.4q58.5-34.5 117-69c3.8-2.2 7.3-2.2 11.1 0.1 20.9 12.4 41.9 24.7 62.8 37.1 2.2 1.3 3.8 1.5 6.1 0 6.9-4.4 14.1-8.4 21-12.8 3.9-2.4 7.5-2.5 11.3-0.1 5.1 3.2 10.3 6.2 15.6 9.2 3.6 2.1 5.3 5.1 5.3 9.3-0.2 25.7-0.2 51.4-0.2 77.2zm-124.1-70.7c0 1.6 0 2.6 0 3.6 0 9.1 0.1 18.1-0.1 27.1 0 2.5 0.9 3.7 2.9 4.9 21.6 12.6 43.1 25.4 64.6 38.1 0.9 0.5 1.8 0.9 2.5 1.6 2.3 1.9 1.8 5-0.9 6.3-1.7 0.8-3.3 1.7-4.8 2.8-2.7 1.9-5.2 3.9-7.9 5.8-2.9 2.1-4.3 1.7-5.5-1.7-1.9-5.5-3.7-11-5.6-16.5-0.2-0.7-0.6-1.3-1-2.2-1.1 0.8-2 1.4-2.9 2-2.5 1.9-5 3.9-7.6 5.7-2.2 1.6-3.8 1-4.8-1.5-0.2-0.5-0.3-1-0.5-1.4-1.9-5.7-3.9-11.4-5.8-17.1-0.5-1.4-1.1-2.4-2.4-3.2-6.1-3.5-12.1-7.1-18.2-10.7-0.5-0.3-1.2-0.5-2-0.8-0.1 1.1-0.2 1.9-0.2 2.6 0 9.4 0.1 18.9-0.1 28.4 0 2 0.7 3.1 2.3 4 35.4 20.8 70.8 41.7 106.3 62.6 0.8 0.5 1.7 0.9 2.7 1.4 0.1-0.9 0.3-1.5 0.3-2.1q0-53.9 0-107.7c0-1.5-0.5-2.4-1.8-3.1-3.3-1.8-6.5-3.7-9.7-5.7-1.7-1.1-3-1.1-4.8 0-7.8 4.8-15.8 9.4-23.6 14.3-2.7 1.7-4.8 1.7-7.6 0.1-20.2-12.1-40.5-24-60.7-35.9-0.6-0.4-1.6-0.9-3.1-1.7zm64.3 29.3c0-3.8 0-6.8 0-9.8 0-1.4-0.8-1.9-1.8-2.5-3.2-1.9-6.5-3.8-9.7-5.7-2.7-1.6-5.4-3.2-8.2-4.8-3.1 1.8-6 3.6-9.4 5.7 9.9 5.8 19.2 11.3 29.1 17.1zm11.2-29.2c2.9 2.5 33.7 20.4 35.7 20.9 0.1-0.3 0.2-0.6 0.2-0.9 0-7.9 0-15.9 0.1-23.8 0-1.3-0.6-2-1.7-2.6-3.4-2-6.9-3.9-10.2-6.1-1.4-0.9-2.5-0.9-4 0-6.1 3.8-12.3 7.5-18.5 11.2-0.5 0.4-1 0.8-1.6 1.3zm-75.2-35.6c-0.2 0.9-0.3 1.3-0.3 1.7 0 7.7 0 15.5 0 23.2 0 1.5 0.6 2.3 1.9 3 7 4.1 14 8.2 20.9 12.3 1.8 1 3.6 2.1 5.4 3.1 4.7-2.8 9.3-5.5 13.8-8.3 1.8-1.1 3.5-1.2 5.3-0.1 7.2 4.3 14.5 8.6 21.7 12.8 1.8 1.1 2.6 2.6 2.5 4.7-0.1 3.1 0 6.2 0 9.3 0 0.8 0.1 1.5 0.3 2.6 6.3-3.8 12.4-7.3 18.7-11.3-30.3-17.6-60-35.2-90.2-53zm-118.9 92.6c37.4-22.1 74.3-43.9 111.1-65.6 0.5-4.5 0.3-24.4-0.3-26.7-0.8 0.4-1.6 0.8-2.3 1.2-35.5 20.9-71 41.9-106.5 62.8-1.6 1-2.4 2-2.4 4 0.1 7.1 0 14.3 0.1 21.4 0.1 0.8 0.2 1.5 0.3 2.9zm-0.2 85.1c1.4-0.7 2.3-1.2 3.1-1.6 3.3-2 6.6-3.9 9.9-5.9 32-18.9 64-37.8 96-56.6 1.8-1.1 2.6-2.2 2.6-4.4-0.1-9.2 0-18.5-0.1-27.7 0-1-0.1-1.9-0.2-3.2-1.3 0.7-2.2 1.2-3.1 1.7-7.9 4.7-15.8 9.3-23.7 14-27.2 16.1-54.5 32.2-81.7 48.1-2.2 1.3-2.9 2.7-2.9 5.2 0.2 8.8 0.1 17.7 0.1 26.5 0 1 0 2.1 0 3.9zm0-42.6c1.3-0.7 2.1-1 2.8-1.4 35.6-21 71.1-42 106.7-62.9 1.6-0.9 2.1-2 2.1-3.8-0.1-9.5 0-19.1 0-28.6 0-0.8-0.1-1.5-0.2-2.6-1 0.5-1.8 0.9-2.6 1.3-3 1.7-6 3.5-8.9 5.3-32.4 19.1-64.8 38.3-97.3 57.3-2 1.2-2.7 2.4-2.7 4.7 0.1 9.1 0.1 18.3 0.1 27.4 0 0.8 0 1.7 0 3.3zm170-28c0.5 3.7 3 10.6 4.4 12.5 2.3-1.8 4.6-3.5 7.4-5.6-4.2-2.5-7.9-4.6-11.8-6.9zm-10.3-6.2c-4.2-2.5-7.8-4.6-11.5-6.8-0.2 0.2-0.3 0.3-0.5 0.5 1.3 3.9 2.7 7.8 4.1 12.2 2.7-1.9 5.1-3.7 7.9-5.9z"/>
					</g>
				</g>
				<g id="Layer">
					<g id="Layer">
						<path id="Layer" fill-rule="evenodd" class="s4" d="m299.7 167.7c1.5 0.8 2.5 1.3 3.4 1.8 20.3 11.9 40.5 23.9 60.7 35.9 2.8 1.7 4.9 1.6 7.6-0.1 7.8-4.9 15.8-9.5 23.6-14.3 1.8-1.1 3.1-1.1 4.8 0 3.2 2 6.4 3.9 9.7 5.7 1.3 0.7 1.8 1.6 1.8 3.1q0 53.8 0 107.7c0 0.6-0.1 1.1-0.3 2.1-1.1-0.5-1.9-0.9-2.7-1.4-35.4-20.9-70.8-41.8-106.3-62.6-1.7-1-2.3-2-2.3-4 0.1-9.4 0-18.9 0.1-28.4 0-0.8 0.1-1.6 0.2-2.6 0.8 0.3 1.4 0.4 2 0.8 6.1 3.5 12.1 7.2 18.2 10.7 1.3 0.8 2 1.8 2.5 3.2 1.9 5.7 3.8 11.4 5.8 17.1 0.2 0.5 0.3 1 0.5 1.4q1.5 3.9 4.8 1.5c2.6-1.8 5.1-3.8 7.6-5.7 0.9-0.6 1.8-1.3 2.9-2 0.4 0.8 0.8 1.5 1 2.2 1.9 5.5 3.7 11 5.6 16.5 1.2 3.4 2.6 3.9 5.5 1.7 2.7-1.9 5.2-4 7.9-5.9 1.5-1.1 3.1-2 4.8-2.8 2.7-1.3 3.2-4.4 0.9-6.3-0.8-0.6-1.7-1.1-2.5-1.6-21.5-12.7-43.1-25.4-64.6-38.1-2-1.2-2.9-2.4-2.9-4.9 0.2-9 0.1-18.1 0.1-27.2-0.4-0.9-0.4-1.9-0.4-3.5z"/>
					</g>
				</g>
				<g id="Layer">
					<g id="Layer">
						<path id="Layer" fill-rule="evenodd" class="s4" d="m180.9 267.3c0-1.5 0-2.4 0-3.3 0-9.1 0.1-18.3-0.1-27.4 0-2.3 0.7-3.6 2.7-4.7 32.5-19.1 64.9-38.2 97.3-57.3 3-1.8 6-3.5 8.9-5.3 0.7-0.4 1.5-0.8 2.6-1.3 0.1 1.1 0.2 1.8 0.2 2.6 0 9.5 0 19.1 0 28.6 0 1.8-0.5 2.9-2.1 3.8-35.6 20.9-71.1 41.9-106.7 62.9-0.7 0.4-1.5 0.7-2.8 1.4z"/>
					</g>
				</g>
				<g id="Layer">
					<g id="Layer">
						<path id="Layer" fill-rule="evenodd" class="s4" d="m180.9 309.9c0-1.8 0-2.9 0-4 0-8.8 0.1-17.7-0.1-26.5 0-2.5 0.7-3.9 2.9-5.2 27.3-16 54.5-32.1 81.7-48.1 7.9-4.7 15.8-9.4 23.7-14 0.9-0.5 1.9-1 3.1-1.7 0.1 1.3 0.2 2.3 0.2 3.2 0 9.2-0.1 18.5 0.1 27.7 0 2.2-0.8 3.4-2.6 4.4-32 18.8-64 37.7-96 56.6-3.3 2-6.6 3.9-9.9 5.9-0.9 0.5-1.7 0.9-3.1 1.7z"/>
					</g>
				</g>
				<g id="Layer">
					<g id="Layer">
						<path id="Layer" fill-rule="evenodd" class="s5" d="m181.1 224.8c-0.1-1.4-0.2-2.1-0.2-2.9 0-7.1 0.1-14.3-0.1-21.4 0-2 0.7-3 2.4-4 35.5-20.9 71-41.9 106.5-62.8 0.7-0.4 1.5-0.8 2.3-1.2 0.6 2.3 0.8 22.2 0.3 26.7-36.9 21.7-73.8 43.5-111.2 65.6z"/>
					</g>
				</g>
				<g id="Layer">
					<g id="Layer">
						<path id="Layer" fill-rule="evenodd" class="s5" d="m300 132.2c30.2 17.8 59.9 35.4 90.2 53.2-6.3 4-12.4 7.5-18.7 11.3-0.1-1.2-0.3-1.9-0.3-2.6 0-3.1-0.1-6.2 0-9.3 0-2.1-0.7-3.6-2.5-4.7-7.2-4.2-14.5-8.5-21.7-12.8-1.8-1.1-3.5-1-5.3 0.1-4.5 2.8-9.1 5.5-13.8 8.3-1.8-1.1-3.6-2.1-5.4-3.1-7-4.1-13.9-8.3-20.9-12.3-1.2-0.7-1.9-1.5-1.9-3 0.1-7.7 0-15.5 0-23.2 0-0.6 0.1-0.9 0.3-1.9z"/>
					</g>
				</g>
				<g id="Layer">
					<g id="Layer">
						<path id="Layer" fill-rule="evenodd" class="s5" d="m375.2 167.8c0.6-0.4 1.1-0.9 1.6-1.2 6.2-3.7 12.4-7.4 18.5-11.2 1.5-0.9 2.6-0.9 4 0 3.3 2.1 6.8 4.1 10.2 6.1 1 0.6 1.7 1.2 1.7 2.6-0.1 7.9 0 15.9-0.1 23.8 0 0.3-0.1 0.6-0.2 0.9-2-0.6-32.8-18.6-35.7-21z"/>
					</g>
				</g>
				<g id="Layer">
					<g id="Layer">
						<path id="Layer" fill-rule="evenodd" class="s2" d="m364 197c-9.9-5.8-19.2-11.3-29-17.1 3.4-2.1 6.3-3.8 9.4-5.7 2.7 1.6 5.5 3.2 8.2 4.8 3.2 1.9 6.5 3.8 9.7 5.7 1 0.6 1.8 1.1 1.8 2.5-0.1 3-0.1 6-0.1 9.8z"/>
					</g>
				</g>
				<g id="Layer">
					<g id="Layer">
						<path id="Layer" fill-rule="evenodd" class="s2" d="m340.6 233.1c-2.8 2.1-5.2 3.9-7.9 5.9-1.5-4.4-2.8-8.3-4.1-12.2 0.2-0.2 0.3-0.3 0.5-0.5 3.6 2.2 7.3 4.4 11.5 6.8z"/>
					</g>
				</g>
				<g id="Layer">
					<g id="Layer">
						<path id="Layer" fill-rule="evenodd" class="s2" d="m350.9 239.3c3.9 2.3 7.6 4.5 11.7 6.9-2.7 2.1-5 3.8-7.4 5.6-1.3-1.9-3.7-8.8-4.3-12.5z"/>
					</g>
				</g>
				<g id="Layer">
					<g id="Layer">
						<path id="Layer" class="s6" d="m185.9 317.9l109.7-67.7 112 67.7-112 62.5z"/>
					</g>
				</g>
				<g id="Layer">
					<g id="Layer">
						<path id="Layer" class="s0" d="m326.7 107.3l3.7-6.4 83.6 48.2-3.7 6.5z"/>
					</g>
				</g>
				<g id="Layer">
					<g id="Layer">
						<g id="Layer">
							<path id="Layer" class="s7" d="m366.1 101.8l2.8-4.6 17.2 10.5-2.8 4.6z"/>
						</g>
					</g>
					<g id="Layer">
						<g id="Layer">
							<path id="Layer" class="s2" d="m363.3 106.4l2.8-4.6 17.2 10.5-2.9 4.6z"/>
						</g>
					</g>
				</g>
			</g>
			<g id="Layer">
				<g id="Layer">
					<path id="Layer" class="s0" d="m114.3 182.4c-6.5 0-13.1-1-19-3-1.4-0.5-2.4-1.8-2.4-3.3 0-1.6 0-3.1-0.1-4.7-0.3-10.9-1.5-21.2-3.5-30.5-2.9-13.4-7.7-25.5-14.3-36-0.6-1-0.7-2.3-0.2-3.4 0.5-1.1 1.6-1.8 2.8-1.9 16.3-1.3 32.2-9.6 42.7-22.2 2.2-2.7 4.2-5.5 6.2-8.4 2-2.9 4.1-5.8 6.4-8.7 8.8-10.7 21.3-18.9 35-22.9 6.5-1.9 13.2-2.9 19.8-2.9 1.1 0 2.1 0 3.2 0.1 1.9 0.1 3.4 1.7 3.3 3.6-0.3 10.5 0.8 29.3 4.7 34.6 0.5 0.7 0.7 1.5 0.7 2.4 0 0.3-2.3 25.6 6 38.7 0.6 1 0.7 2.2 0.2 3.3-0.5 1.1-1.5 1.8-2.7 2-3.9 0.6-14.8 2.8-18.8 6.2-5.3 4.5-9.3 10.7-12.9 16.7-0.7 1.1-1.3 2.2-2 3.4-3.1 5.4-6.3 10.9-10.4 15.8-7.4 8.9-17.6 15.6-28.8 18.8-4.8 1.6-10.2 2.3-15.9 2.3z"/>
				</g>
				<g id="Layer">
					<path id="Layer" fill-rule="evenodd" class="s0" d="m191.3 31.3c3.7 0.1 6.7 3.3 6.6 7.1-0.3 12.5 1.2 28.5 4.1 32.5 1 1.4 1.5 3.1 1.3 4.8-0.6 6.8-0.8 26.5 5.5 36.6 1.2 2 1.4 4.5 0.4 6.6-1 2.2-3 3.7-5.3 4-5.3 0.8-14.3 3-17.1 5.4-4.9 4.2-8.7 10.1-12.1 15.8-0.7 1.1-1.4 2.2-2 3.3-3.2 5.5-6.5 11.1-10.8 16.3-7.9 9.4-18.7 16.5-30.5 19.9-5.4 1.5-11.1 2.3-17.1 2.3-6.9 0-13.8-1-20.1-3.1-2.9-0.9-4.8-3.6-4.8-6.6 0-1.6-0.1-3.1-0.1-4.6-0.3-10.7-1.5-20.7-3.5-29.9-2.8-13-7.5-24.8-13.8-34.9-1.3-2-1.4-4.6-0.3-6.8 1.1-2.2 3.3-3.6 5.7-3.8 15.4-1.2 30.4-9 40.2-20.9 2.1-2.5 4.1-5.3 6.1-8.2 2.1-3 4.2-6 6.6-8.9 9.3-11.2 22.3-19.8 36.7-24 6.8-2 13.8-3 20.8-3 1.1 0 2.3 0 3.5 0.1zm-22.3 9.7c-12.9 3.8-24.7 11.4-33.3 21.8-4.5 5.5-8.2 11.6-12.7 17.1-11.1 13.4-27.8 22-45.1 23.4 7.1 11.5 11.8 24.1 14.7 37.1 2.2 10.2 3.3 20.7 3.6 31.2 0.1 1.5 0.1 3.1 0.1 4.7 5.6 1.9 11.8 2.8 17.9 2.8 5.2 0 10.4-0.7 15.2-2.1 10.6-3 20.1-9.3 27.1-17.7 4.8-5.8 8.3-12.4 12.1-18.8 3.8-6.5 7.9-12.8 13.6-17.6 5.6-4.8 20.5-7 20.5-7-9-14.3-6.5-40.9-6.5-40.9-6.1-8.4-5.4-36.8-5.4-36.8-1-0.1-2-0.1-3-0.1-6.4 0-12.7 1-18.8 2.9z"/>
				</g>
			</g>
			<g id="Layer">
				<path id="Layer" class="s8" d="m201.3 115.7c0 0-14.5 2.1-20 6.8-5.5 4.7-9.6 10.9-13.3 17.1-3.7 6.3-7.1 12.7-11.8 18.3-6.8 8.2-16.1 14.3-26.4 17.3-10.3 3-22.2 2.6-32.3-0.7 0-1.5 0-3.1-0.1-4.6-0.3-10.3-1.4-20.5-3.5-30.4-2.8-12.7-7.4-24.9-14.4-36.1 16.9-1.4 33.1-9.8 43.9-22.8 4.4-5.3 8-11.3 12.3-16.7 8.3-10.1 19.9-17.5 32.5-21.2 6.9-2 14.1-3 21.3-2.6 0 0-0.7 27.7 5.3 35.9 0.1-0.2-2.3 25.8 6.5 39.7z"/>
			</g>
			<g id="Layer">
				<path id="Layer" class="s2" d="m201.3 115.7c0 0-14.5 2.1-20 6.8-5.5 4.7-9.6 10.9-13.3 17.1-3.7 6.3-7.1 12.7-11.8 18.3-6.8 8.2-16.1 14.3-26.4 17.3-10.3 3-22.2 2.6-32.3-0.7-0.1-11.8-1.1-23.6-3.6-35 19.1-1.8 38.9-17.8 51.6-31.3 13.4-14.2 26.6-28.9 49.4-32.3 0-0.1-2.4 25.9 6.4 39.8z"/>
			</g>
			<g id="Layer">
				<g id="Layer">
					<path id="Layer" class="s0" d="m205.6 155.2l11.5-7.1 2.3 15.9-12.2 4.5z"/>
				</g>
				<g id="Layer">
					<path id="Layer" fill-rule="evenodd" class="s0" d="m218.8 150.1l1.8 12.5 0.4 2.4-2.3 0.8-9.3 3.4-3.5 1.3-0.5-3.7-1.3-10.5-0.2-1.9 1.6-1 8.8-5.4 3.9-2.4zm-11.7 5.8c0.5 3.5 0.9 7 1.3 10.5l9.3-3.4c-0.6-4.2-1.2-8.3-1.8-12.5-2.9 1.8-5.8 3.7-8.8 5.4z"/>
				</g>
			</g>
		</g>
	</g>
</svg>